<svg width="68" height="68" viewBox="0 0 68 68" fill="none" xmlns="http://www.w3.org/2000/svg">
<circle cx="34" cy="34" r="34" fill="#DFB8AC"/>
<g style="mix-blend-mode:multiply">
<mask id="mask0_7:11" style="mask-type:alpha" maskUnits="userSpaceOnUse" x="9" y="11" width="53" height="47">
<rect x="9" y="11" width="52.5294" height="47" fill="#C4C4C4"/>
</mask>
<g mask="url(#mask0_7:11)">
</g>
<g clip-path="url(#clip0_7:11)">
<path d="M15.4126 17.2674L19.2201 55.9023L27.09 30.9879L33.6621 38.7029L40.1223 31.0069L47.7897 55.3165L51.9116 16.9674L33.3501 27.447L15.4126 17.2674Z" fill="#BFBFBF"/>
<path d="M19.2201 56.1999C19.2105 56.1999 19.1986 56.1999 19.1891 56.1976C19.0486 56.1833 18.9367 56.0714 18.9248 55.9309L15.1173 17.296C15.1054 17.1864 15.1578 17.0769 15.2506 17.0174C15.3435 16.9578 15.4625 16.9531 15.5602 17.0079L33.3525 27.1041L51.7639 16.7078C51.8615 16.6531 51.9806 16.6578 52.0734 16.7173C52.1663 16.7793 52.2187 16.8864 52.2068 16.9983L48.0849 55.3475C48.0706 55.488 47.9587 55.5975 47.8182 55.6118C47.6777 55.6261 47.5468 55.5404 47.5039 55.4046L40.0008 31.6141L33.8882 38.8934C33.8311 38.9601 33.7501 38.9982 33.662 39.0006C33.5739 39.0006 33.4906 38.9625 33.4334 38.8958L27.2114 31.5903L19.5034 55.9928C19.4653 56.1166 19.3487 56.1999 19.2201 56.1999ZM15.765 17.8079L19.3749 54.426L26.8066 30.8974C26.8399 30.795 26.9256 30.7164 27.0304 30.695C27.1375 30.6735 27.2447 30.7116 27.3161 30.7926L33.6596 38.2386L39.8936 30.814C39.9627 30.7307 40.0722 30.6926 40.1794 30.714C40.2865 30.7354 40.3722 30.8116 40.4056 30.9164L47.6444 53.8688L51.5519 17.5103L33.4977 27.7042C33.4072 27.7566 33.2953 27.7566 33.2048 27.7042L15.765 17.8079Z" fill="black"/>
<path d="M19.2202 56.0809C19.1606 56.0809 19.1035 56.0523 19.0701 56L9.02864 40.7222C9.00244 40.6817 8.99292 40.6293 9.00482 40.5817C9.01673 40.5341 9.04769 40.4912 9.09055 40.4674L17.0818 36.0431L15.234 17.2841C15.2269 17.2174 15.2578 17.1531 15.3126 17.1174C15.3674 17.0817 15.4388 17.0793 15.4983 17.1103L33.3502 27.0375L51.8235 16.8102C51.8806 16.7769 51.9521 16.7817 52.0092 16.8174C52.064 16.8531 52.0949 16.9198 52.0878 16.9841L50.0114 36.3003L58.0527 40.7722C58.0979 40.796 58.1289 40.8389 58.1408 40.8889C58.1527 40.9389 58.1408 40.9913 58.1122 41.0318L47.935 55.4166C47.8874 55.4832 47.8016 55.5094 47.7254 55.4809C47.6492 55.4523 47.6016 55.3761 47.6111 55.2951L49.6304 36.498L33.3502 27.4447L17.4604 36.2408L19.3964 55.8833C19.4035 55.9642 19.3559 56.0428 19.2773 56.069C19.2606 56.0785 19.2416 56.0809 19.2202 56.0809ZM9.43344 40.6865L18.9725 55.1975L17.1223 36.4313L9.43344 40.6865ZM49.9709 36.6885L48.0398 54.6522L57.705 40.9913L49.9709 36.6885ZM33.7193 27.2423L49.6733 36.1146L51.6973 17.2912L33.7193 27.2423ZM15.6245 17.5889L17.4247 35.855L32.9835 27.2423L15.6245 17.5889Z" fill="black"/>
<path d="M19.2201 56.0809C19.1463 56.0809 19.0796 56.0356 19.0534 55.9642L9.70248 30.7902C9.68105 30.7354 9.69058 30.6735 9.72391 30.6259C9.75725 30.5783 9.81202 30.5497 9.86917 30.5497L27.0114 30.6378L33.4906 10.1238C33.5144 10.05 33.5835 10 33.6621 10C33.7407 10 33.8097 10.05 33.8311 10.1262L40.2723 30.7069L56.7478 30.7926C56.8049 30.7926 56.8597 30.8212 56.893 30.8688C56.9263 30.9164 56.9335 30.9783 56.9144 31.0331L47.9564 55.3784C47.9302 55.4499 47.8611 55.4975 47.7849 55.4951C47.7087 55.4927 47.6421 55.4427 47.6183 55.3689L40.0103 31.0617L27.2733 30.995L19.3916 55.9571C19.3678 56.0309 19.3011 56.0809 19.2249 56.0809C19.2225 56.0809 19.2225 56.0809 19.2201 56.0809ZM10.1263 30.9069L19.2058 55.3522L26.8995 30.995L10.1263 30.9069ZM40.3866 31.0641L47.804 54.7617L56.4954 31.1474L40.3866 31.0641ZM27.3876 30.6402L39.9008 30.7045L33.6621 10.7739L27.3876 30.6402Z" fill="black"/>
<path d="M15.5505 17.1496L15.2784 17.381L47.6574 55.4305L47.9295 55.199L15.5505 17.1496Z" fill="black"/>
<path d="M51.7727 16.8496L19.0835 55.7868L19.3571 56.0165L52.0462 17.0792L51.7727 16.8496Z" fill="black"/>
</g>
</g>
<defs>
<clipPath id="clip0_7:11">
<rect width="49.1455" height="46.2" fill="white" transform="translate(9 10)"/>
</clipPath>
</defs>
</svg>
