<svg width="47" height="70" viewBox="0 0 47 70" fill="none" xmlns="http://www.w3.org/2000/svg">
<path d="M28.5 69.7C29.3 69.1 28.7 68.5 28.5 67.9C27.2 64.7 26.7 61.4 26.4 58C26.1 52.8 26.3 47.6 26.8 42.4C27 40.4 27.2 38.3 27.4 36.3C31.7 35.5 36 34.7 40.4 34.3C41.6 34.2 42.5 34.2 43.4 35C44.1 35.6 45.5 36.2 46.3 35.5C46.4 35.5 46.4 35.5 46.4 35.4C46.5 35.3 46.5 35.3 46.4 35.2C46.4 34.8 46 34.4 45.8 34C45.5 33.7 45.1 33.4 44.7 33.2C43.8 32.7 42.9 32.4 41.9 32.3C39.9 31.9 37.8 32.1 35.8 32.4C33.1 32.8 30.4 33.2 27.8 33.7C28.1 31 28.5 28.3 28.9 25.7C34.8 24.8 39.9 23.9 42.2 23.5C42.7 23.5 43.2 23.3 43.7 23.2C44.1 23 44.2 22.7 44 22.3C43.5 21.3 42.9 20.9 41.8 20.8C40.8 20.8 40.3 20.9 39.2 20.9C39 20.9 38.7 21 38.6 21.3C38.2 22 37.6 21.9 37.1 22C35.3 22.3 32.5 22.7 29.3 23.2C30.4 17 31.6 10.9 33 4.89999C33.3 3.89999 33.5 2.89999 33.7 1.89999C33.8 1.59999 33.7 1.2 33.4 0.999997C32.4 0.499998 31 0.999995 30.7 2.1C30.4 3.19999 30.2 4.29999 29.9 5.39999C28.5 11.4 27.3 17.5 26.3 23.6C23.7 24 20.9 24.4 18.2 24.8C19.3 20.1 20.5 15.4 22 10.8C22.4 9.59999 22.8 8.4 23.4 7.2C23.7 6.5 24.1 5.19999 24.9 4.89999C25.6 4.49999 25.4 3.7 24.8 3.3C23.7 2.6 22.6 2.9 21.9 4C19.4 7.8 18.3 12.2 17.1 16.4C16.2 19.4 15.5 22.3 14.9 25.3C10.3 25.9 6.29999 26.5 3.99999 26.7C2.99999 26.8 1.99999 26.9 0.999991 27C0.399991 27.1 0.299992 27.6 0.699991 28.1C1.39999 29 2.09999 29.3 3.29999 29.2C5.69999 29 9.69999 28.4 14.4 27.8C14.2 28.5 14.1 29.2 14 29.9C13.6 32.1 13.2 34.3 12.9 36.5C10.3 37 7.79999 37.6 5.19999 38.2C4.49999 38.3 3.79999 38.6 3.09999 38.9C2.39999 39.2 2.39999 39.7 2.89999 40.1C3.89999 40.9 5.19999 41.1 6.39999 41.2C7.39999 41.3 8.49999 41.8 8.69999 40.4C8.89999 39.8 9.69999 39.8 10.3 39.7C11 39.5 11.7 39.4 12.5 39.2C12.4 39.5 12.4 39.8 12.3 40.1C11.8 44.3 11.2 51.8 11.3 54.8C11.3 56.7 11.6 58.5 12.1 60.3C12.8 62.7 15.4 63.2 17.3 62.6C17.7 62.4 18.1 62.2 18.4 61.9C18.9 61.2 18.7 60.7 17.9 60.4C17 60 16.2 60.3 15.3 60.5C14.8 59.6 14.7 58.6 14.6 57.6C14.1 52.7 14.6 47.8 15.1 42.9L15.7 38.6C17.8 38.1 20 37.7 22.2 37.3C22.9 37.1 23.6 37 24.4 36.8C24 39.9 23.8 42.9 23.5 45.9C23.1 51.3 23.2 56.6 23.9 62C24.2 64.1 24.8 66.1 25.6 68.1C25.7 68.4 25.8 68.8 26 69.1C26.5 69.8 27.8 70.2 28.5 69.7ZM16.1 35.8C16.6 33 17.1 30.2 17.7 27.3C20.4 27 23.1 26.5 25.8 26.1C25.4 28.8 25 31.5 24.7 34.2C21.8 34.7 19 35.3 16.1 35.8Z" fill="black"/>
</svg>
